<svg width="100" height="100" viewBox="0 0 100 100" fill="none" xmlns="http://www.w3.org/2000/svg">
<path d="M78.3069 92.6083L65.5593 84.1302L56.2262 99.9994L78.3069 92.6083Z" fill="#03182B"/>
<path d="M78.3069 92.6083L89.9164 15.6505L12.9753 6.95502L0 95.5513L56.2262 99.9994L65.5593 84.1302L78.3069 92.6083Z" fill="#03182B"/>
<path d="M24.5737 52.2892C24.4897 52.2789 24.413 52.2151 24.2594 52.0875C24.1338 51.9634 24.1102 51.7159 24.1534 51.3951C24.211 50.9673 24.7901 49.6252 25.2232 48.9445C25.2692 48.8143 25.5968 48.2838 25.9243 47.7533C26.2483 47.2495 26.731 46.4119 27.1037 45.9684C28.4032 43.9266 29.0935 42.8155 29.1079 42.7085C29.1223 42.6016 29.513 42.0245 30.0273 41.1636C30.0309 41.1368 29.8945 41.0929 29.6426 41.062C28.8867 40.9692 27.3045 40.8836 26.2406 40.753L25.6843 40.6576C25.5723 40.6438 25.5515 40.5869 25.5587 40.5334C25.5803 40.373 25.8086 40.1564 26.0046 40.1805L26.0326 40.1839C26.1138 40.0037 30.5976 40.3096 30.6436 40.1793C30.788 39.9524 30.88 39.692 30.916 39.4246C30.9448 39.2107 30.942 39.0201 30.9148 38.7994C30.6116 37.4576 29.9121 36.3118 27.7931 33.66C26.0265 31.3504 25.6922 30.8745 25.5926 30.3459C25.541 30.095 25.5382 29.9044 25.5562 29.7707C25.5814 29.5836 25.6553 29.4568 25.7401 29.2497C26.3212 28.3155 28.1054 27.7464 30.6755 27.6814C33.7883 27.6016 36.8967 27.7658 41.9921 28.3914C44.1758 28.6595 46.7759 29.0059 49.8727 29.4676C53.6974 30.0187 54.5229 30.2287 54.4869 30.4961C54.4617 30.6833 53.8558 30.7448 53.2119 30.6657L52.7115 30.5771C52.2916 30.5255 51.6125 30.4965 51.0697 30.5114C50.6742 30.49 50.2227 30.4618 49.6627 30.393C49.0188 30.314 48.2105 30.1876 47.0734 29.9664C45.1317 29.5921 43.3787 29.2954 41.6429 29.0823C39.9911 28.8795 38.3285 28.7569 36.4664 28.637C31.4922 28.3796 28.7433 28.5042 27.2147 29.0775C26.7308 29.2898 26.4708 29.5297 26.4241 29.8773C26.3449 30.4655 26.9088 31.35 28.2163 32.8423C30.1372 35.0621 30.9939 36.3087 31.4651 37.6711C31.7039 38.4342 31.8847 38.7825 31.9687 38.7929C32.0246 38.7997 32.0634 38.723 32.0814 38.5893C32.0994 38.4556 32.4162 38.0053 32.7645 37.5317C33.742 36.4015 34.5587 35.1972 35.3202 33.7688C35.7009 33.0545 36.0953 32.4507 36.1621 32.3774C36.1936 32.3541 36.2496 32.3609 36.3056 32.3678C36.6416 32.409 36.7708 32.5064 37.4211 32.7493L37.2263 33.3505C37.1443 33.7481 36.824 34.2252 36.388 34.7152C36.0261 35.0784 35.157 36.2491 34.4847 37.2265C33.8404 38.2073 33.0805 39.2011 32.8557 39.391C32.6834 39.6144 32.4442 39.9112 32.3594 40.1182L32.2746 40.3252C32.2674 40.3787 32.3198 40.4123 32.4038 40.4226L32.6594 40.4268C33.9128 40.4176 37.162 40.3817 38.2367 40.4321C38.6286 40.4802 39.0242 40.5016 39.4477 40.5264C39.7557 40.5642 40.0141 40.759 39.9853 40.9729C39.9601 41.16 39.6821 41.5336 39.2894 41.7028L38.6626 41.7074C37.5564 41.6803 33.0337 41.4512 32.0819 41.3343L31.8335 41.2766C31.7775 41.2697 31.7179 41.2896 31.7179 41.2896C31.6315 41.9313 30.5825 44.4387 29.8382 45.9508C28.5688 48.4041 26.1907 51.4821 25.0821 52.107C24.8365 52.2399 24.6857 52.3029 24.5737 52.2892ZM27.1518 48.1485C27.2078 48.1554 27.6861 47.5619 28.0696 47.0382C28.5416 46.2808 29.7794 43.8509 29.8154 43.5836C29.7594 43.5767 28.2236 46.1059 27.7301 47.0237L27.2294 47.995L27.1518 48.1485Z" fill="#03182B"/>
<path d="M40.787 45.7459L40.5702 45.6649C40.0075 45.4056 39.7995 44.8365 39.9039 44.0612C39.9579 43.6601 40.1067 43.1892 40.3466 42.6751C40.583 42.1877 40.9114 41.4399 41.0809 41.0259C41.2469 40.6386 41.5285 40.2383 41.746 40.102C41.96 39.9923 42.1712 39.6921 42.2596 39.4584C42.4363 38.9909 42.6087 38.7674 42.8887 38.8018C43.0007 38.8156 43.109 38.856 43.2418 38.9267C43.4478 39.0879 43.5454 39.2086 43.5202 39.3957L43.5094 39.4759C43.4346 39.8201 42.5907 40.8036 42.3948 40.7795C42.3388 40.7726 42.2964 40.8761 42.2784 41.0098C42.264 41.1168 42.1232 41.3169 41.9932 41.4368C41.8668 41.53 41.6061 41.9872 41.4889 42.4349C41.3437 42.8791 41.1705 43.3198 41.1073 43.3664C41.037 43.4665 40.9982 43.5433 40.991 43.5967C40.963 43.5933 40.8782 43.8003 40.7934 44.0073L40.7014 44.2678C40.6798 44.4282 40.7142 44.5955 40.7278 44.7059C40.7866 44.9033 40.8354 44.9637 40.9474 44.9774L41.2941 44.9385C41.6761 44.8495 42.9743 44.0848 43.6106 43.3748C43.7478 43.2014 44.127 42.9218 44.3589 42.6785C44.6713 42.4723 45.0928 42.0892 45.2968 41.8424C45.5676 41.5224 45.7851 41.386 45.9251 41.4032C46.0371 41.4169 46.0787 41.5308 46.0535 41.7179L45.9787 42.062C45.8903 42.2958 45.6476 42.6193 45.3984 42.7789C45.1492 42.9386 44.4749 43.5081 43.8918 44.0344C42.8167 45.0439 41.5149 45.8353 40.787 45.7459ZM45.1827 35.7134C45.0708 35.6997 44.91 35.6256 44.6968 35.5179C44.5396 35.417 44.4492 35.2429 44.4708 35.0825C44.4924 34.922 44.5556 34.8754 44.7236 34.8961L44.944 34.9503C45.3043 35.0217 45.3775 35.1122 45.3975 35.3865L45.3831 35.4934C45.3615 35.6538 45.2947 35.7272 45.1827 35.7134Z" fill="#03182B"/>
<path d="M42.5235 46.6114C42.4395 46.601 42.3627 46.5373 42.2823 46.5002C42.1847 46.3795 42.1639 46.3226 42.1963 46.082C42.2251 45.8681 42.2991 45.7413 42.3379 45.6645C44.1168 41.7519 43.2173 43.5711 45.0063 39.7956C45.0523 39.6654 45.2942 39.5592 45.4342 39.5764L45.7982 39.621C46.0501 39.652 46.1089 39.8494 46.0973 40.147C46.0585 40.2237 46.0901 40.2004 46.0234 40.2738L46.0226 40.4911L45.8854 40.6645L44.7819 42.7304L44.8099 42.7339L46.3037 41.1507C46.9084 40.464 47.5196 39.9411 47.6911 39.935L47.8663 39.9021C47.9051 39.8254 47.9891 39.8357 48.1291 39.8529L48.3567 39.8536C48.9546 40.0629 49.2733 40.0205 49.2266 40.3681L49.2294 40.5587C49.2258 40.5854 49.1906 40.6354 49.131 40.6553C48.9242 40.7115 48.3291 40.6927 47.9651 40.6481C47.9651 40.6481 47.9091 40.6412 47.9019 40.6947C47.1788 41.2038 47.0596 41.2435 46.5849 41.8103C46.3773 42.0838 46.1418 42.3538 46.0434 42.4505L45.945 42.5471C45.9414 42.5738 45.843 42.6705 45.7166 42.7637C45.2807 43.2537 45.0975 43.5573 44.6824 44.1043C44.2988 44.6279 44.0669 44.8712 44.0245 44.9747L42.927 46.3619C42.7898 46.5354 42.6391 46.5984 42.5235 46.6114Z" fill="#03182B"/>
<path d="M45.3206 51.3304C45.0127 51.2926 44.7471 51.1513 44.5871 50.8599C44.3919 50.6185 44.3611 50.4244 44.4043 50.1036L44.4403 49.8363C44.8459 48.0923 45.9365 47.6011 48.9029 45.4378L48.8437 44.3978C48.8497 43.719 48.8837 43.0438 48.9665 42.4288C49.06 41.7337 49.1952 41.1524 49.3504 40.8453C49.5544 40.5986 49.7827 40.382 50.0211 40.3026C50.2279 40.2464 50.4139 40.1334 50.4247 40.0532C50.4283 40.0264 50.765 39.8503 51.1506 39.7346C51.5397 39.5921 52.1952 39.3737 52.588 39.2045C53.0159 38.9852 53.3175 38.8592 53.5135 38.8832C53.7094 38.9073 53.8034 39.0547 53.9146 39.2858L53.9626 39.5635C53.9446 39.6972 53.8182 39.7903 53.5059 39.9966C53.2567 40.1563 52.9271 40.2789 52.7592 40.2582C52.3112 40.2032 50.603 41.0535 50.1987 41.5202C49.9947 41.7669 49.8639 42.1042 49.8064 42.532C49.7488 42.9597 49.7644 43.478 49.846 44.1403C49.942 44.6957 49.9728 44.8897 50.0568 44.9L52.9568 43.6525C54.6154 42.9593 55.6636 42.5716 55.9716 42.6094C56.0836 42.6232 56.1044 42.6801 56.09 42.787C56.0576 43.0277 54.1038 44.0108 53.0032 44.3649C52.3721 44.6135 51.3834 44.9813 50.8887 45.2739C50.0888 45.7193 49.9588 45.8392 49.8136 46.2834C49.6116 46.938 48.7546 48.6537 48.2654 49.3275C47.2836 50.7017 46.1325 51.4301 45.3206 51.3304ZM45.5226 50.6757C45.6346 50.6895 45.9993 50.5169 46.3225 50.2304C46.6944 50.0043 47.162 49.491 47.4083 49.1407C47.7991 48.5636 48.6282 46.8445 48.6642 46.5771L48.6677 46.5504C48.4438 46.5229 46.3865 48.064 45.9225 48.5506C45.4902 49.0139 45.2186 49.5513 45.161 49.9791C45.1106 50.3534 45.2146 50.6379 45.5226 50.6757Z" fill="#03182B"/>
<path d="M52.514 49.1696C52.346 49.149 52.1888 49.0482 52.0948 48.9007C52.0008 48.7533 52.0024 48.3187 52.0744 47.784C52.1752 47.0353 52.4132 46.1133 52.6883 45.5492C52.8895 45.1119 53.1611 44.5745 53.2214 44.3373C53.5534 43.5627 56.2058 38.2354 57.1549 36.2592C57.42 35.558 57.5924 35.3345 57.6212 35.1206C57.632 35.0404 57.5552 34.9767 57.1072 34.9217L52.3255 34.7151L51.1396 34.4336L50.6005 34.4218C50.2221 34.484 49.9629 34.5066 49.795 34.4859C49.347 34.4309 49.4038 34.2205 49.4298 33.816C49.4838 33.415 49.8901 33.3562 50.87 33.4765C51.7063 33.6063 52.5498 33.6827 53.5505 33.8599C54.0544 33.9218 54.4256 33.913 54.608 33.8267C54.6675 33.8068 54.8951 33.8076 55.2031 33.8454C55.987 33.9416 57.18 34.1696 57.18 34.1696C58.1599 34.2899 58.2791 34.2502 58.4371 34.1337C58.5707 33.987 58.8242 33.5833 58.9486 33.0822C59.2174 32.3542 59.2561 32.2775 59.6517 32.2988L59.7917 32.316C59.9877 32.3401 60.1484 32.4142 60.218 32.5314C60.3084 32.7056 60.3464 32.8462 60.3248 33.0066C60.296 33.2205 60.1517 33.4473 59.8845 33.7407C59.6209 34.0073 59.4837 34.1807 59.4693 34.2876C59.4369 34.5282 59.9129 34.5867 61.2567 34.7517C62.2646 34.8754 64.2767 35.1496 65.6658 35.4017C68.0103 35.7439 68.2586 35.8015 68.2299 36.0154L68.2227 36.0689C68.1307 36.3294 67.4896 36.4409 66.7896 36.355L66.1285 36.1923C65.7194 36.0605 63.4905 35.7053 61.6427 35.4785C60.2989 35.3135 59.1718 35.2295 58.9966 35.2623C58.853 35.2719 58.7546 35.3685 58.7474 35.422C58.7366 35.5022 58.5183 35.8559 58.2367 36.2561C57.7368 37.0101 57.5608 37.2603 57.2741 38.1219C57.1245 38.8102 56.2566 40.6061 55.9579 40.9227C55.7295 41.1393 54.5801 43.3355 53.5146 45.5419C53.1267 46.3097 52.7299 47.5655 52.658 48.1002C52.6328 48.2873 52.6184 48.3943 52.6744 48.4012C52.9823 48.439 53.6774 47.9264 55.0124 46.6771C56.5722 45.2379 58.178 43.6685 58.4912 43.2449C58.5968 43.0948 58.8071 43.0119 58.9751 43.0325C59.1151 43.0497 59.1639 43.1101 59.1459 43.2437C59.0603 43.6681 58.2932 44.7154 57.7561 45.1115C57.4717 45.3211 56.625 46.1141 55.8451 46.8336C54.141 48.4997 53.1019 49.2418 52.514 49.1696Z" fill="#03182B"/>
<path d="M19.4192 80.1799C18.7753 80.1008 18.2225 79.9786 17.9498 79.8908C16.314 79.1464 15.4365 77.8428 15.62 76.4793C15.6884 75.9713 15.9004 75.4538 16.2767 74.9836C17.0194 73.9062 18.1453 73.3649 19.4083 72.6503C19.6367 72.4337 21.5472 71.7714 23.1102 71.3654C24.0809 71.1313 24.2353 71.0415 24.4256 70.6844C24.542 70.4541 24.8452 69.8934 25.1411 69.3862C25.3775 68.8988 25.6491 68.3614 25.7511 68.2381C26.4514 67.2641 27.0585 65.9254 27.4996 64.974C27.708 64.4832 28.0679 63.712 28.2447 63.2445C28.4179 62.8038 28.6154 62.3932 28.675 62.3733C28.9522 62.2171 29.2833 61.6599 29.4185 61.0785C29.5285 60.6844 29.7045 60.4342 30.0404 60.4754C30.1244 60.4858 30.3096 60.59 30.5228 60.6977C30.7883 60.839 30.8615 60.9296 30.8075 61.3306C30.7751 61.5712 30.6272 61.8248 30.5044 61.8913C30.378 61.9845 30.276 62.1079 30.2652 62.1881C30.24 62.3752 29.7013 63.2059 29.3501 63.489C29.1498 63.709 29.0262 63.9928 28.9578 64.5007C28.8894 65.0087 28.727 65.3693 28.2695 66.0197C26.8157 68.1513 25.3747 70.6107 25.3315 70.9315L25.3595 70.935C25.4435 70.9453 25.7343 70.8994 26.081 70.8605C26.4874 70.8016 27.4997 70.6813 28.4487 70.6076C29.3382 70.5537 30.5537 70.404 31.1036 70.3356C33.2193 70.0518 35.3135 69.9284 36.5525 70.0262C37.0356 70.0312 37.694 70.0033 38.0371 69.991C38.3279 69.9452 38.839 69.9536 39.119 69.988C39.5669 70.043 39.6617 69.9731 40.372 69.1362C41.8874 67.3927 42.8329 65.4432 43.0704 63.6787C43.1604 63.0103 43.1492 62.2479 43.1048 61.9435C42.7984 59.5686 40.9542 57.4126 38.4857 56.5116C37.3251 56.043 36.3072 55.7821 35.2713 55.6549C34.0955 55.5106 32.926 55.53 31.3602 55.7455C28.6737 56.0407 27.0476 56.4934 25.2238 57.3566C24.7607 57.6258 24.3155 57.7614 24.2595 57.7546C24.1755 57.7442 24.0528 57.8107 24.0492 57.8374C24.0104 57.9142 23.698 58.1205 23.3296 58.3198C21.8842 59.1208 19.2582 61.0813 18.1199 62.1374C16.6829 63.5101 16.553 63.63 16.3382 63.957C16.0286 64.3538 15.7343 64.4264 15.2223 64.6353L15.3991 64.1678C15.4703 63.8504 15.7555 63.4234 15.9838 63.2069L17.576 61.5271C21.2071 57.5972 27.9958 54.7345 33.5731 54.7398C34.2874 54.7188 34.9629 54.7745 35.6069 54.8536C37.3706 55.0701 38.8601 55.6335 40.4355 56.6151C43.0624 58.2421 44.3586 60.8744 43.9843 63.655C43.9231 64.1095 43.8059 64.5571 43.6572 65.028C43.0872 66.7246 42.333 68.0996 41.2291 69.323C40.9547 69.6698 40.7436 69.97 40.7364 70.0235L40.8764 70.0407C41.3243 70.0957 42.7521 70.271 45.9273 70.3618C46.722 70.3779 47.254 70.4432 47.5899 70.4844C48.1219 70.5497 48.0903 70.573 48.2718 70.704L48.2818 70.8411C48.253 71.055 48.1303 71.1215 47.6363 71.1967C47.2544 71.2857 46.4037 71.2628 45.3362 71.1589C43.3657 70.9985 42.0734 71.0845 39.6153 71.1632L39.0954 71.6429C37.6972 72.9389 34.6216 75.2791 32.3303 76.6556C29.2563 78.5611 26.0131 79.8208 23.0215 80.2688C22.2612 80.4201 20.651 80.3311 19.4192 80.1799ZM20.3851 79.3473C23.1847 79.691 27.3066 78.4576 30.7481 76.5701C32.5935 75.5464 38.1571 71.6364 38.1967 71.3424C38.2039 71.2889 38.0359 71.2683 37.812 71.2408C37.364 71.1858 36.5973 71.1732 36.0266 71.1846C34.1176 71.4123 31.6567 71.3004 28.5747 71.5743C25.3455 71.8845 24.4589 72.1289 24.2433 72.6732C24.0981 73.1174 23.533 73.51 23.1271 74.4114C22.7219 75.0955 22.5919 75.2154 22.34 75.1845C22.172 75.1638 22.0392 75.0932 22.0536 74.9862L22.0732 74.4179C22.1272 74.0169 23.1922 72.8703 23.221 72.6564L23.2002 72.5995C23.0602 72.5823 22.4047 72.8008 21.686 73.0658C18.664 74.1624 17.0174 75.4007 16.8411 76.7107C16.8015 77.0048 16.8459 77.3092 16.9499 77.5938C17.2862 78.4776 18.7053 79.141 20.3851 79.3473Z" fill="#03182B"/>
<path d="M44.4499 75.7791C44.3659 75.7688 44.2891 75.705 44.2087 75.6679C44.1111 75.5472 44.0903 75.4903 44.1227 75.2497C44.1515 75.0358 44.2255 74.909 44.2643 74.8322C46.0432 70.9196 45.1438 72.7388 46.9327 68.9633C46.9787 68.8331 47.2207 68.7269 47.3606 68.7441L47.7246 68.7887C47.9766 68.8197 48.0354 69.0171 48.0238 69.3147C47.985 69.3915 48.0166 69.3682 47.9498 69.4415L47.949 69.6588L47.8118 69.8322L46.7084 71.8981L46.7364 71.9016L48.2301 70.3184C48.8349 69.6317 49.446 69.1088 49.6176 69.1027L49.7927 69.0698C49.8315 68.9931 49.9155 69.0034 50.0555 69.0206L50.2831 69.0213C50.881 69.2306 51.1998 69.1882 51.153 69.5358L51.1558 69.7264C51.1522 69.7531 51.117 69.8032 51.0574 69.823C50.8506 69.8792 50.2555 69.8605 49.8915 69.8158C49.8915 69.8158 49.8355 69.8089 49.8283 69.8624C49.1052 70.3715 48.986 70.4112 48.5113 70.978C48.3037 71.2515 48.0682 71.5215 47.9698 71.6182L47.8714 71.7148C47.8678 71.7415 47.7694 71.8382 47.643 71.9314C47.2071 72.4214 47.0239 72.725 46.6088 73.272C46.2252 73.7956 45.9933 74.0389 45.9509 74.1424L44.8534 75.5297C44.7162 75.7031 44.5655 75.7661 44.4499 75.7791Z" fill="#03182B"/>
<path d="M50.8445 74.2812C50.7325 74.2675 50.5961 74.2235 50.467 74.1262C50.1878 73.8745 50.0946 73.5097 50.1558 73.0552L50.1982 72.9517C50.4873 71.438 51.5704 70.1578 53.3877 69.1307C53.9593 68.9019 54.5652 68.8404 55.1531 68.9126C55.4331 68.947 55.5479 69.1513 55.5011 69.4989C55.4687 69.7395 55.2231 69.8724 54.7364 69.8942L54.5928 69.9038C54.2216 69.9125 53.7485 70.0447 53.233 70.2804C52.861 70.5065 52.6399 70.6696 52.5415 70.7662C52.4431 70.8628 52.2779 71.0328 52.0495 71.2494C51.6316 71.6057 51.3916 72.1198 51.3052 72.7615L51.2813 73.5739C51.4248 73.5643 51.6984 73.4348 52.1091 73.1319L52.8007 72.6461C53.447 72.0732 53.9037 71.6401 54.1709 71.3467C54.3956 71.1569 54.69 71.0843 54.998 71.1221C55.2219 71.1496 55.3159 71.2971 55.2799 71.5644C55.068 72.082 54.9652 72.4226 54.9472 72.5563C54.952 73.1548 55.2484 73.4902 55.8923 73.5692C56.8722 73.6895 58.1868 73.2258 59.8398 72.1514C59.9905 72.0884 60.1097 72.0487 60.1937 72.059C60.3337 72.0762 60.3789 72.1633 60.3609 72.2969C60.3465 72.4039 60.1253 72.567 59.7218 72.8164C59.4446 72.9726 59.2866 73.0891 59.255 73.1124C59.2198 73.1624 59.0655 73.2522 58.8199 73.3851C58.5463 73.5146 58.3604 73.6276 58.206 73.7174C57.1505 74.1585 56.243 74.3461 55.4871 74.2533C54.8992 74.1811 54.4973 73.9959 54.3129 73.6743C54.1285 73.3527 54.0561 73.0448 54.0993 72.724L54.1101 72.6438C53.145 73.2591 52.6151 73.6017 52.5799 73.6518C51.8604 74.1342 51.2645 74.3328 50.8445 74.2812Z" fill="#03182B"/>
<path d="M55.4868 82.3794C55.4309 82.3725 55.3089 82.2217 55.2185 82.0475C55.1037 81.8432 55.0981 81.462 55.1665 80.954C55.2637 80.2321 55.7372 79.0401 55.8056 78.5321C56.4947 76.7958 56.7978 76.2351 56.877 75.6469C56.8706 75.4831 56.7342 75.4391 56.7322 75.0312C56.7466 74.9243 56.8414 74.8544 56.9922 74.7914C57.3145 74.7222 57.5257 74.422 58.0444 73.3171L59.0043 71.2607C59.217 70.5258 59.8706 69.8994 59.8922 69.739C59.9065 69.6321 60.0129 69.2647 60.2873 68.9179C60.5373 68.5409 61.8139 66.0342 61.8915 65.8806C62.3586 64.5247 62.513 64.435 62.8317 64.3926C63.1677 64.4338 63.5696 64.6191 63.494 65.1805C63.4617 65.4212 63.3101 65.7015 63.1909 65.7412C63.0645 65.8344 62.5618 66.3978 61.2916 69.0683C60.9776 69.7092 60.7341 70.2501 60.6393 70.32C60.4993 70.3028 60.5573 70.7176 60.005 71.4379C59.4066 72.2885 58.474 74.5656 58.3768 75.2875C58.3444 75.5281 58.3796 75.4781 58.46 75.5151C58.74 75.5495 59.5915 75.3551 60.6641 74.9976C61.4388 74.7394 63.2454 73.7925 64.3088 73.0806C64.7196 72.7777 64.9895 72.675 65.1295 72.6921C65.2415 72.7059 65.2867 72.793 65.2687 72.9267C65.2327 73.194 62.975 74.9552 62.7231 74.9242C62.6391 74.9139 62.3727 74.9899 62.1867 75.103C61.1485 75.6278 59.915 75.9112 58.8216 76.2118C58.7624 77.0742 58.82 76.6464 58.6976 77.5555C58.5248 78.8388 58.0025 79.9705 57.1478 81.0342C56.4691 81.8477 55.7948 82.4172 55.4868 82.3794ZM55.946 81.2943C56.6175 80.5342 57.0742 80.1011 57.5154 79.1497C57.7553 78.6356 57.9401 77.8973 58.0193 77.3091C58.0985 76.7209 58.0721 76.2828 57.9321 76.2657C57.8481 76.2553 57.7145 76.402 57.6505 76.6659C57.5765 76.7927 57.3646 77.3103 57.1354 77.7442C56.2999 79.2994 56.0756 80.3318 55.946 81.2943Z" fill="#03182B"/>
<path d="M61.8168 79.2429C61.6488 79.2223 61.4917 79.1215 61.3977 78.9741C61.3037 78.8266 61.3053 78.392 61.3773 77.8573C61.478 77.1087 61.716 76.1867 61.9912 75.6225C62.1923 75.1852 62.4639 74.6478 62.5243 74.4106C62.8562 73.636 65.5086 68.3087 66.4577 66.3325C66.7229 65.6313 66.8952 65.4079 66.924 65.194C66.9348 65.1138 66.858 65.05 66.4101 64.995L61.6283 64.7884L60.4424 64.5069L59.9033 64.4951C59.5249 64.5573 59.2658 64.5799 59.0978 64.5593C58.6499 64.5043 58.7067 64.2938 58.7326 63.8893C58.7866 63.4883 59.193 63.4295 60.1729 63.5498C61.0092 63.6796 61.8527 63.756 62.8533 63.9332C63.3573 63.9951 63.7284 63.9863 63.9108 63.9C63.9704 63.8801 64.198 63.8809 64.5059 63.9187C65.2898 64.0149 66.4829 64.2429 66.4829 64.2429C67.4627 64.3632 67.5819 64.3235 67.7399 64.207C67.8735 64.0604 68.1271 63.6566 68.2514 63.1555C68.5202 62.4275 68.559 62.3508 68.9545 62.3722L69.0945 62.3894C69.2905 62.4134 69.4513 62.4875 69.5209 62.6048C69.6113 62.7789 69.6493 62.9195 69.6277 63.0799C69.5989 63.2938 69.4545 63.5207 69.1873 63.814C68.9238 64.0806 68.7866 64.254 68.7722 64.3609C68.7398 64.6016 69.2157 64.66 70.5596 64.825C71.5674 64.9487 73.5796 65.2229 74.9686 65.475C77.3131 65.8172 77.5615 65.8749 77.5327 66.0887L77.5255 66.1422C77.4335 66.4027 76.7924 66.5142 76.0925 66.4283L75.4314 66.2656C75.0222 66.1338 72.7933 65.7787 70.9455 65.5518C69.6017 65.3868 68.4746 65.3028 68.2994 65.3357C68.1559 65.3452 68.0575 65.4418 68.0503 65.4953C68.0395 65.5755 67.8211 65.9292 67.5396 66.3295C67.0396 67.0834 66.8637 67.3336 66.5769 68.1953C66.4273 68.8835 65.5595 70.6794 65.2607 70.9961C65.0323 71.2126 63.8829 73.4088 62.8175 75.6153C62.4295 76.383 62.0328 77.6388 61.9608 78.1735C61.9356 78.3607 61.9212 78.4676 61.9772 78.4745C62.2852 78.5123 62.9803 77.9997 64.3153 76.7504C65.8751 75.3112 67.4809 73.7418 67.794 73.3182C67.8996 73.1681 68.11 73.0852 68.2779 73.1059C68.4179 73.123 68.4667 73.1834 68.4487 73.3171C68.3631 73.7414 67.596 74.7887 67.0589 75.1848C66.7746 75.3945 65.9279 76.1874 65.148 76.907C63.4438 78.573 62.4048 79.3151 61.8168 79.2429Z" fill="#03182B"/>
<path d="M80.1282 90.8691L67.3806 82.3911L58.0475 98.2603L80.1282 90.8691Z" fill="#0064E1"/>
<path d="M80.1282 90.8691L91.7377 13.9114L14.7966 5.21591L1.82129 93.8122L58.0475 98.2603L67.3806 82.3911L80.1282 90.8691Z" fill="#0082FB"/>
<path d="M26.395 50.5501C26.311 50.5398 26.2342 50.476 26.0807 50.3484C25.9551 50.2243 25.9315 49.9768 25.9747 49.656C26.0323 49.2282 26.6114 47.886 27.0445 47.2054C27.0905 47.0752 27.418 46.5447 27.7456 46.0141C28.0696 45.5104 28.5523 44.6728 28.925 44.2293C30.2244 42.1875 30.9147 41.0764 30.9291 40.9694C30.9435 40.8625 31.3343 40.2854 31.8486 39.4245C31.8522 39.3977 31.7158 39.3538 31.4639 39.3229C30.708 39.2301 29.1258 39.1445 28.0619 39.0139L27.5056 38.9184C27.3936 38.9047 27.3728 38.8478 27.38 38.7943C27.4016 38.6339 27.6299 38.4173 27.8259 38.4414L27.8539 38.4448C27.9351 38.2646 32.4189 38.5705 32.4649 38.4402C32.6093 38.2133 32.7013 37.9529 32.7373 37.6855C32.7661 37.4716 32.7633 37.281 32.7361 37.0603C32.4329 35.7185 31.7334 34.5727 29.6144 31.9209C27.8478 29.6113 27.5134 29.1354 27.4139 28.6068C27.3623 28.3559 27.3595 28.1653 27.3774 28.0316C27.4026 27.8445 27.4766 27.7177 27.5614 27.5106C28.1425 26.5764 29.9267 26.0073 32.4968 25.9423C35.6096 25.8625 38.718 26.0267 43.8134 26.6523C45.9971 26.9204 48.5972 27.2667 51.694 27.7285C55.5187 28.2796 56.3442 28.4896 56.3082 28.757C56.283 28.9442 55.6771 29.0057 55.0332 28.9266L54.5328 28.838C54.1129 28.7864 53.4338 28.7574 52.891 28.7723C52.4955 28.7509 52.0439 28.7227 51.484 28.6539C50.8401 28.5749 50.0318 28.4485 48.8947 28.2273C46.953 27.853 45.2 27.5563 43.4642 27.3432C41.8124 27.1404 40.1498 27.0178 38.2877 26.8979C33.3135 26.6405 30.5646 26.7651 29.036 27.3384C28.5521 27.5507 28.2921 27.7906 28.2453 28.1382C28.1662 28.7263 28.7301 29.6109 30.0375 31.1031C31.9585 33.323 32.8152 34.5696 33.2864 35.932C33.5252 36.6951 33.706 37.0434 33.7899 37.0538C33.8459 37.0606 33.8847 36.9839 33.9027 36.8502C33.9207 36.7165 34.2375 36.2662 34.5858 35.7926C35.5633 34.6624 36.38 33.4581 37.1415 32.0297C37.5222 31.3154 37.9165 30.7116 37.9833 30.6382C38.0149 30.6149 38.0709 30.6218 38.1269 30.6287C38.4629 30.6699 38.5921 30.7673 39.2424 31.0102L39.0476 31.6114C38.9656 32.009 38.6453 32.4861 38.2093 32.9761C37.8474 33.3393 36.9783 34.51 36.306 35.4874C35.6617 36.4682 34.9018 37.462 34.677 37.6519C34.5047 37.8753 34.2655 38.1721 34.1807 38.3791L34.0959 38.5861C34.0887 38.6396 34.1411 38.6732 34.2251 38.6835L34.4807 38.6877C35.7341 38.6785 38.9833 38.6426 40.058 38.693C40.4499 38.7411 40.8455 38.7625 41.269 38.7873C41.577 38.8251 41.8353 39.0199 41.8066 39.2338C41.7814 39.4209 41.5034 39.7945 41.1106 39.9637L40.4839 39.9683C39.3777 39.9412 34.855 39.712 33.9032 39.5952L33.6548 39.5375C33.5988 39.5306 33.5392 39.5505 33.5392 39.5505C33.4528 40.1922 32.4038 42.6996 31.6595 44.2117C30.3901 46.6649 28.012 49.743 26.9034 50.3679C26.6578 50.5008 26.507 50.5638 26.395 50.5501ZM28.9731 46.4094C29.029 46.4163 29.5074 45.8228 29.8909 45.2991C30.3629 44.5417 31.6007 42.1118 31.6367 41.8445C31.5807 41.8376 30.0449 44.3668 29.5514 45.2846L29.0506 46.2559L28.9731 46.4094Z" fill="white"/>
<path d="M42.6083 44.0068L42.3915 43.9258C41.8288 43.6665 41.6208 43.0974 41.7252 42.3221C41.7792 41.921 41.928 41.4501 42.1679 40.936C42.4043 40.4486 42.7326 39.7008 42.9022 39.2868C43.0682 38.8995 43.3497 38.4992 43.5673 38.3629C43.7813 38.2532 43.9925 37.953 44.0808 37.7193C44.2576 37.2518 44.43 37.0283 44.71 37.0627C44.8219 37.0765 44.9303 37.1169 45.0631 37.1876C45.2691 37.3488 45.3667 37.4695 45.3415 37.6566L45.3307 37.7368C45.2559 38.081 44.412 39.0645 44.216 39.0404C44.1601 39.0335 44.1177 39.137 44.0997 39.2707C44.0853 39.3777 43.9445 39.5778 43.8145 39.6977C43.6881 39.7909 43.4274 40.2481 43.3102 40.6957C43.165 41.1399 42.9918 41.5807 42.9286 41.6273C42.8582 41.7274 42.8195 41.8041 42.8123 41.8576C42.7843 41.8542 42.6995 42.0612 42.6147 42.2682L42.5227 42.5287C42.5011 42.6891 42.5355 42.8564 42.5491 42.9668C42.6079 43.1642 42.6567 43.2246 42.7687 43.2383L43.1154 43.1994C43.4974 43.1104 44.7956 42.3457 45.4319 41.6357C45.5691 41.4623 45.9482 41.1827 46.1802 40.9394C46.4926 40.7331 46.9141 40.3501 47.1181 40.1033C47.3889 39.7833 47.6064 39.6469 47.7464 39.6641C47.8584 39.6778 47.9 39.7916 47.8748 39.9788L47.8 40.3229C47.7116 40.5567 47.4689 40.8802 47.2197 41.0398C46.9705 41.1995 46.2962 41.769 45.7131 42.2953C44.638 43.3048 43.3362 44.0962 42.6083 44.0068ZM47.004 33.9743C46.8921 33.9606 46.7313 33.8865 46.5181 33.7788C46.3609 33.6779 46.2705 33.5038 46.2921 33.3434C46.3137 33.1829 46.3769 33.1363 46.5449 33.157L46.7653 33.2112C47.1256 33.2826 47.1988 33.3731 47.2188 33.6474L47.2044 33.7543C47.1828 33.9147 47.116 33.9881 47.004 33.9743Z" fill="white"/>
<path d="M44.3448 44.8723C44.2608 44.8619 44.184 44.7982 44.1036 44.7611C44.006 44.6404 43.9852 44.5835 44.0176 44.3429C44.0464 44.129 44.1204 44.0022 44.1592 43.9254C45.9381 40.0128 45.0386 41.832 46.8276 38.0565C46.8736 37.9263 47.1155 37.8201 47.2555 37.8373L47.6195 37.8819C47.8714 37.9129 47.9302 38.1103 47.9186 38.4079C47.8798 38.4846 47.9114 38.4613 47.8446 38.5347L47.8438 38.752L47.7067 38.9254L46.6032 40.9913L46.6312 40.9948L48.125 39.4116C48.7297 38.7249 49.3408 38.202 49.5124 38.1959L49.6876 38.163C49.7264 38.0863 49.8104 38.0966 49.9504 38.1138L50.1779 38.1145C50.7759 38.3238 51.0946 38.2814 51.0478 38.629L51.0506 38.8196C51.047 38.8463 51.0118 38.8963 50.9523 38.9162C50.7455 38.9724 50.1504 38.9536 49.7864 38.909C49.7864 38.909 49.7304 38.9021 49.7232 38.9556C49.0001 39.4647 48.8809 39.5044 48.4062 40.0712C48.1986 40.3447 47.9631 40.6147 47.8647 40.7114L47.7663 40.808C47.7627 40.8347 47.6643 40.9314 47.5379 41.0245C47.102 41.5146 46.9188 41.8182 46.5037 42.3652C46.1201 42.8888 45.8881 43.1321 45.8457 43.2356L44.7483 44.6228C44.6111 44.7962 44.4603 44.8593 44.3448 44.8723Z" fill="white"/>
<path d="M47.1419 49.5913C46.834 49.5535 46.5684 49.4122 46.4084 49.1207C46.2132 48.8794 46.1824 48.6853 46.2256 48.3645L46.2616 48.0971C46.6671 46.3532 47.7578 45.862 50.7242 43.6987L50.665 42.6586C50.671 41.9799 50.705 41.3047 50.7878 40.6897C50.8813 39.9946 51.0165 39.4133 51.1717 39.1062C51.3757 38.8595 51.604 38.6429 51.8424 38.5635C52.0492 38.5073 52.2351 38.3943 52.2459 38.3141C52.2495 38.2873 52.5863 38.1112 52.9719 37.9955C53.361 37.853 54.0165 37.6346 54.4093 37.4654C54.8372 37.2461 55.1388 37.1201 55.3347 37.1441C55.5307 37.1682 55.6247 37.3156 55.7359 37.5467L55.7839 37.8244C55.7659 37.9581 55.6395 38.0512 55.3272 38.2575C55.078 38.4171 54.7484 38.5398 54.5805 38.5191C54.1325 38.4641 52.4243 39.3144 52.02 39.7811C51.816 40.0278 51.6852 40.3651 51.6277 40.7929C51.5701 41.2206 51.5857 41.7389 51.6673 42.4012C51.7633 42.9565 51.7941 43.1506 51.878 43.1609L54.7781 41.9134C56.4366 41.2202 57.4849 40.8325 57.7929 40.8703C57.9049 40.8841 57.9257 40.941 57.9113 41.0479C57.8789 41.2886 55.9251 42.2717 54.8245 42.6258C54.1933 42.8744 53.2047 43.2422 52.7099 43.5348C51.9101 43.9802 51.7801 44.1001 51.6349 44.5443C51.4329 45.1989 50.5759 46.9146 50.0867 47.5884C49.1049 48.9626 47.9538 49.691 47.1419 49.5913ZM47.3439 48.9366C47.4559 48.9504 47.8206 48.7778 48.1438 48.4913C48.5157 48.2652 48.9833 47.7518 49.2296 47.4016C49.6204 46.8245 50.4494 45.1054 50.4854 44.838L50.489 44.8113C50.2651 44.7838 48.2077 46.3249 47.7438 46.8115C47.3115 47.2748 47.0399 47.8122 46.9823 48.24C46.9319 48.6143 47.0359 48.8988 47.3439 48.9366Z" fill="white"/>
<path d="M54.3353 47.4305C54.1673 47.4099 54.0101 47.3091 53.9161 47.1616C53.8221 47.0142 53.8237 46.5796 53.8957 46.0448C53.9965 45.2962 54.2345 44.3742 54.5096 43.8101C54.7108 43.3728 54.9823 42.8354 55.0427 42.5982C55.3747 41.8236 58.0271 36.4963 58.9761 34.5201C59.2413 33.8189 59.4137 33.5954 59.4425 33.3815C59.4533 33.3013 59.3765 33.2375 58.9285 33.1826L54.1467 32.976L52.9609 32.6945L52.4218 32.6827C52.0434 32.7449 51.7842 32.7675 51.6163 32.7468C51.1683 32.6918 51.2251 32.4814 51.2511 32.0769C51.3051 31.6759 51.7114 31.617 52.6913 31.7374C53.5276 31.8672 54.3711 31.9436 55.3718 32.1208C55.8757 32.1827 56.2469 32.1739 56.4292 32.0876C56.4888 32.0677 56.7164 32.0685 57.0244 32.1063C57.8083 32.2025 59.0013 32.4305 59.0013 32.4305C59.9812 32.5508 60.1004 32.5111 60.2584 32.3946C60.3919 32.2479 60.6455 31.8442 60.7699 31.3431C61.0386 30.6151 61.0774 30.5384 61.473 30.5597L61.613 30.5769C61.8089 30.601 61.9697 30.6751 62.0393 30.7923C62.1297 30.9665 62.1677 31.1071 62.1461 31.2675C62.1173 31.4814 61.9729 31.7082 61.7058 32.0016C61.4422 32.2682 61.305 32.4416 61.2906 32.5485C61.2582 32.7891 61.7342 32.8476 63.078 33.0125C64.0859 33.1363 66.098 33.4105 67.4871 33.6626C69.8316 34.0048 70.0799 34.0624 70.0511 34.2763L70.0439 34.3298C69.952 34.5903 69.3108 34.7018 68.6109 34.6159L67.9498 34.4532C67.5407 34.3214 65.3117 33.9662 63.464 33.7394C62.1201 33.5744 60.9931 33.4904 60.8179 33.5232C60.6743 33.5328 60.5759 33.6294 60.5687 33.6829C60.5579 33.7631 60.3396 34.1168 60.058 34.517C59.5581 35.271 59.3821 35.5212 59.0954 36.3828C58.9458 37.0711 58.0779 38.867 57.7792 39.1836C57.5508 39.4002 56.4013 41.5964 55.3359 43.8028C54.948 44.5705 54.5512 45.8264 54.4792 46.3611C54.4541 46.5482 54.4397 46.6552 54.4956 46.6621C54.8036 46.6999 55.4987 46.1873 56.8337 44.938C58.3935 43.4988 59.9993 41.9294 60.3125 41.5058C60.418 41.3557 60.6284 41.2728 60.7964 41.2934C60.9364 41.3106 60.9852 41.371 60.9672 41.5046C60.8816 41.929 60.1145 42.9763 59.5774 43.3723C59.293 43.582 58.4463 44.375 57.6664 45.0945C55.9623 46.7606 54.9232 47.5027 54.3353 47.4305Z" fill="white"/>
<path d="M21.2405 78.4408C20.5966 78.3617 20.0438 78.2395 19.7711 78.1517C18.1353 77.4073 17.2578 76.1037 17.4413 74.7402C17.5097 74.2322 17.7217 73.7147 18.098 73.2445C18.8407 72.167 19.9666 71.6258 21.2296 70.9112C21.458 70.6946 23.3685 70.0323 24.9315 69.6263C25.9022 69.3922 26.0566 69.3024 26.2469 68.9453C26.3633 68.715 26.6665 68.1543 26.9624 67.6471C27.1988 67.1597 27.4704 66.6223 27.5723 66.499C28.2726 65.525 28.8798 64.1863 29.3209 63.2349C29.5293 62.7441 29.8892 61.9729 30.066 61.5054C30.2391 61.0647 30.4367 60.6541 30.4963 60.6342C30.7735 60.478 31.1046 59.9207 31.2398 59.3394C31.3498 58.9453 31.5258 58.6951 31.8617 58.7363C31.9457 58.7467 32.1309 58.8509 32.3441 58.9586C32.6096 59.0999 32.6828 59.1905 32.6288 59.5915C32.5964 59.8321 32.4485 60.0857 32.3257 60.1522C32.1993 60.2454 32.0973 60.3688 32.0865 60.449C32.0613 60.6361 31.5226 61.4668 31.1714 61.7499C30.9711 61.9699 30.8475 62.2536 30.7791 62.7616C30.7107 63.2696 30.5483 63.6302 30.0908 64.2806C28.637 66.4122 27.196 68.8716 27.1528 69.1924L27.1808 69.1958C27.2648 69.2062 27.5556 69.1603 27.9023 69.1214C28.3087 69.0625 29.3209 68.9422 30.27 68.8685C31.1595 68.8146 32.375 68.6649 32.9249 68.5965C35.0406 68.3127 37.1348 68.1893 38.3738 68.2871C38.8569 68.2921 39.5153 68.2642 39.8584 68.2519C40.1492 68.2061 40.6603 68.2145 40.9403 68.2489C41.3882 68.3039 41.483 68.234 42.1933 67.3971C43.7087 65.6536 44.6542 63.7041 44.8917 61.9396C44.9817 61.2712 44.9705 60.5088 44.9261 60.2044C44.6197 57.8295 42.7755 55.6734 40.307 54.7725C39.1463 54.3038 38.1285 54.043 37.0926 53.9158C35.9168 53.7715 34.7473 53.7909 33.1815 54.0064C30.495 54.3016 28.8688 54.7543 27.0451 55.6175C26.5819 55.8867 26.1368 56.0223 26.0808 56.0155C25.9968 56.0051 25.874 56.0716 25.8704 56.0983C25.8316 56.1751 25.5193 56.3814 25.1509 56.5807C23.7055 57.3817 21.0795 59.3422 19.9412 60.3983C18.5042 61.771 18.3743 61.8909 18.1595 62.2179C17.8499 62.6147 17.5556 62.6873 17.0436 62.8962L17.2204 62.4287C17.2916 62.1113 17.5768 61.6843 17.8051 61.4677L19.3973 59.788C23.0284 55.8581 29.8171 52.9954 35.3944 53.0007C36.1087 52.9797 36.7842 53.0354 37.4281 53.1145C39.1919 53.331 40.6813 53.8944 42.2568 54.876C44.8836 56.503 46.1799 59.1353 45.8056 61.9159C45.7444 62.3704 45.6272 62.818 45.4784 63.2889C44.9085 64.9855 44.1542 66.3605 43.0504 67.5839C42.776 67.9307 42.5649 68.2309 42.5577 68.2844L42.6977 68.3016C43.1456 68.3566 44.5734 68.5319 47.7486 68.6227C48.5433 68.6388 49.0753 68.7041 49.4112 68.7453C49.9431 68.8106 49.9115 68.8339 50.0931 68.9649L50.1031 69.102C50.0743 69.3159 49.9515 69.3824 49.4576 69.4576C49.0757 69.5466 48.225 69.5237 47.1575 69.4198C45.1869 69.2594 43.8947 69.3454 41.4366 69.4241L40.9167 69.9038C39.5185 71.1998 36.4429 73.5399 34.1516 74.9165C31.0776 76.822 27.8344 78.0817 24.8428 78.5297C24.0825 78.681 22.4723 78.592 21.2405 78.4408ZM22.2063 77.6081C25.006 77.9519 29.1279 76.7185 32.5694 74.8309C34.4148 73.8073 39.9784 69.8973 40.018 69.6032C40.0252 69.5498 39.8572 69.5291 39.6333 69.5017C39.1853 69.4467 38.4186 69.4341 37.8479 69.4455C35.9389 69.6732 33.478 69.5613 30.396 69.8352C27.1668 70.1453 26.2801 70.3898 26.0646 70.9341C25.9194 71.3783 25.3543 71.7709 24.9483 72.6723C24.5432 73.3564 24.4132 73.4763 24.1612 73.4453C23.9933 73.4247 23.8605 73.3541 23.8749 73.2471L23.8945 72.6788C23.9485 72.2778 25.0135 71.1312 25.0423 70.9173L25.0215 70.8604C24.8815 70.8432 24.226 71.0617 23.5073 71.3267C20.4853 72.4233 18.8387 73.6616 18.6624 74.9716C18.6228 75.2657 18.6672 75.5701 18.7712 75.8547C19.1075 76.7385 20.5266 77.4019 22.2063 77.6081Z" fill="white"/>
<path d="M46.2712 74.04C46.1872 74.0296 46.1104 73.9659 46.03 73.9288C45.9324 73.8081 45.9116 73.7512 45.944 73.5106C45.9728 73.2967 46.0468 73.1699 46.0856 73.0931C47.8645 69.1805 46.965 70.9997 48.754 67.2242C48.8 67.094 49.0419 66.9878 49.1819 67.005L49.5459 67.0496C49.7978 67.0806 49.8566 67.278 49.845 67.5756C49.8063 67.6523 49.8379 67.629 49.7711 67.7024L49.7703 67.9197L49.6331 68.0931L48.5296 70.159L48.5576 70.1625L50.0514 68.5793C50.6562 67.8926 51.2673 67.3697 51.4388 67.3636L51.614 67.3307C51.6528 67.254 51.7368 67.2643 51.8768 67.2815L52.1044 67.2822C52.7023 67.4915 53.021 67.4491 52.9743 67.7967L52.9771 67.9873C52.9735 68.014 52.9383 68.064 52.8787 68.0839C52.6719 68.1401 52.0768 68.1213 51.7128 68.0767C51.7128 68.0767 51.6568 68.0698 51.6496 68.1233C50.9265 68.6324 50.8073 68.6721 50.3326 69.2389C50.125 69.5124 49.8895 69.7824 49.7911 69.8791L49.6927 69.9757C49.6891 70.0024 49.5907 70.0991 49.4643 70.1923C49.0284 70.6823 48.8452 70.9859 48.4301 71.5329C48.0465 72.0565 47.8146 72.2998 47.7722 72.4033L46.6747 73.7906C46.5375 73.964 46.3868 74.027 46.2712 74.04Z" fill="white"/>
<path d="M52.6658 72.5421C52.5538 72.5284 52.4174 72.4844 52.2883 72.387C52.0091 72.1353 51.9159 71.7706 51.9771 71.3161L52.0195 71.2126C52.3086 69.6989 53.3917 68.4187 55.209 67.3916C55.7806 67.1628 56.3865 67.1013 56.9744 67.1735C57.2544 67.2079 57.3692 67.4122 57.3224 67.7598C57.29 68.0004 57.0444 68.1333 56.5577 68.1551L56.4141 68.1646C56.0429 68.1734 55.5698 68.3056 55.0543 68.5413C54.6823 68.7674 54.4611 68.9305 54.3628 69.0271C54.2644 69.1237 54.0992 69.2937 53.8708 69.5102C53.4529 69.8666 53.2129 70.3807 53.1265 71.0224L53.1025 71.8347C53.2461 71.8252 53.5197 71.6957 53.9304 71.3928L54.6219 70.907C55.2683 70.3341 55.725 69.901 55.9922 69.6076C56.2169 69.4178 56.5113 69.3452 56.8192 69.383C57.0432 69.4105 57.1372 69.558 57.1012 69.8253C56.8892 70.3428 56.7865 70.6835 56.7685 70.8172C56.7733 71.4157 57.0696 71.7511 57.7136 71.8301C58.6934 71.9504 60.0081 71.4867 61.661 70.4123C61.8118 70.3493 61.931 70.3096 62.015 70.3199C62.155 70.3371 62.2002 70.4241 62.1822 70.5578C62.1678 70.6648 61.9466 70.8279 61.5431 71.0773C61.2659 71.2335 61.1079 71.35 61.0763 71.3733C61.0411 71.4233 60.8868 71.5131 60.6412 71.646C60.3676 71.7755 60.1817 71.8885 60.0273 71.9783C58.9718 72.4194 58.0643 72.607 57.3084 72.5142C56.7205 72.442 56.3185 72.2568 56.1342 71.9352C55.9498 71.6136 55.8774 71.3057 55.9206 70.9849L55.9314 70.9047C54.9663 71.52 54.4364 71.8626 54.4012 71.9127C53.6817 72.3951 53.0858 72.5937 52.6658 72.5421Z" fill="white"/>
<path d="M57.3081 80.6403C57.2521 80.6334 57.1302 80.4826 57.0398 80.3084C56.925 80.1041 56.9194 79.7229 56.9878 79.2149C57.0849 78.493 57.5585 77.301 57.6269 76.793C58.3159 75.0567 58.6191 74.496 58.6983 73.9078C58.6919 73.744 58.5555 73.7 58.5535 73.2921C58.5679 73.1852 58.6627 73.1153 58.8135 73.0523C59.1358 72.9831 59.347 72.6829 59.8657 71.578L60.8256 69.5216C61.0383 68.7867 61.6918 68.1603 61.7134 67.9999C61.7278 67.893 61.8342 67.5256 62.1086 67.1787C62.3585 66.8018 63.6352 64.2951 63.7127 64.1415C64.1799 62.7856 64.3343 62.6959 64.653 62.6535C64.989 62.6947 65.3909 62.88 65.3153 63.4414C65.2829 63.682 65.1314 63.9624 65.0122 64.0021C64.8858 64.0953 64.3831 64.6587 63.1129 67.3292C62.7989 67.9701 62.5553 68.511 62.4606 68.5808C62.3206 68.5637 62.3786 68.9785 61.8262 69.6988C61.2279 70.5494 60.2953 72.8265 60.1981 73.5484C60.1657 73.789 60.2009 73.739 60.2813 73.776C60.5613 73.8104 61.4127 73.616 62.4854 73.2585C63.2601 73.0003 65.0667 72.0534 66.1301 71.3415C66.5409 71.0386 66.8108 70.9358 66.9508 70.953C67.0628 70.9668 67.108 71.0539 67.09 71.1876C67.054 71.4549 64.7963 73.2161 64.5443 73.1851C64.4604 73.1748 64.194 73.2508 64.008 73.3639C62.9697 73.8887 61.7363 74.1721 60.6428 74.4727C60.5837 75.3351 60.6413 74.9073 60.5189 75.8164C60.3461 77.0997 59.8238 78.2314 58.9691 79.2951C58.2904 80.1086 57.6161 80.6781 57.3081 80.6403ZM57.7673 79.5552C58.4388 78.7951 58.8955 78.362 59.3366 77.4106C59.5766 76.8965 59.7614 76.1582 59.8406 75.57C59.9197 74.9818 59.8933 74.5437 59.7534 74.5266C59.6694 74.5162 59.5358 74.6629 59.4718 74.9268C59.3978 75.0536 59.1858 75.5712 58.9567 76.0051C58.1212 77.5603 57.8968 78.5927 57.7673 79.5552Z" fill="white"/>
<path d="M63.6381 77.5038C63.4701 77.4832 63.313 77.3824 63.219 77.235C63.125 77.0875 63.1266 76.6529 63.1986 76.1182C63.2993 75.3696 63.5373 74.4476 63.8125 73.8834C64.0136 73.4461 64.2852 72.9087 64.3456 72.6715C64.6775 71.8969 67.3299 66.5696 68.279 64.5934C68.5441 63.8922 68.7165 63.6687 68.7453 63.4549C68.7561 63.3747 68.6793 63.3109 68.2314 63.2559L63.4496 63.0493L62.2637 62.7678L61.7246 62.756C61.3462 62.8182 61.0871 62.8408 60.9191 62.8202C60.4712 62.7652 60.5279 62.5547 60.5539 62.1502C60.6079 61.7492 61.0143 61.6904 61.9942 61.8107C62.8304 61.9405 63.6739 62.0169 64.6746 62.1941C65.1786 62.256 65.5497 62.2472 65.7321 62.1609C65.7917 62.141 66.0192 62.1418 66.3272 62.1796C67.1111 62.2758 68.3042 62.5038 68.3042 62.5038C69.284 62.6241 69.4032 62.5844 69.5612 62.4679C69.6948 62.3213 69.9483 61.9175 70.0727 61.4164C70.3415 60.6884 70.3803 60.6117 70.7758 60.6331L70.9158 60.6502C71.1118 60.6743 71.2726 60.7484 71.3422 60.8657C71.4325 61.0398 71.4705 61.1804 71.4489 61.3408C71.4202 61.5547 71.2758 61.7816 71.0086 62.0749C70.745 62.3415 70.6079 62.5149 70.5935 62.6218C70.5611 62.8625 71.037 62.9209 72.3809 63.0859C73.3887 63.2096 75.4009 63.4838 76.7899 63.7359C79.1344 64.0781 79.3828 64.1358 79.354 64.3496L79.3468 64.4031C79.2548 64.6636 78.6137 64.7751 77.9138 64.6892L77.2527 64.5265C76.8435 64.3947 74.6146 64.0396 72.7668 63.8127C71.423 63.6477 70.2959 63.5637 70.1207 63.5965C69.9772 63.6061 69.8788 63.7027 69.8716 63.7562C69.8608 63.8364 69.6424 64.1901 69.3609 64.5904C68.8609 65.3443 68.6849 65.5945 68.3982 66.4562C68.2486 67.1444 67.3807 68.9403 67.082 69.2569C66.8536 69.4735 65.7042 71.6697 64.6388 73.8762C64.2508 74.6439 63.8541 75.8997 63.7821 76.4344C63.7569 76.6216 63.7425 76.7285 63.7985 76.7354C64.1064 76.7732 64.8016 76.2606 66.1366 75.0113C67.6964 73.5721 69.3021 72.0027 69.6153 71.5791C69.7209 71.429 69.9313 71.3461 70.0992 71.3668C70.2392 71.3839 70.288 71.4443 70.27 71.578C70.1844 72.0023 69.4173 73.0496 68.8802 73.4457C68.5958 73.6554 67.7492 74.4483 66.9693 75.1679C65.2651 76.8339 64.226 77.576 63.6381 77.5038Z" fill="white"/>
<rect x="2.79683" y="0.421688" width="8.15719" height="30.9639" rx="4.0786" transform="matrix(0.804628 -0.59378 0.593785 0.804624 68.1317 8.96177)" stroke="#011608" stroke-width="4"/>
<rect x="2.79683" y="0.421688" width="8.15719" height="30.9639" rx="4.0786" transform="matrix(0.804628 -0.59378 0.593785 0.804624 69.7528 9.02525)" stroke="#45D078" stroke-width="4"/>
</svg>
