<svg width="112" height="88" viewBox="0 0 112 88" fill="none" xmlns="http://www.w3.org/2000/svg">
<path d="M98.8311 21.0255C101.565 21.3196 103.548 23.7781 103.252 26.5243L100.313 53.7778C100.017 56.5245 97.5544 58.5057 94.8202 58.2116C92.0867 57.9175 90.1035 55.459 90.3996 52.7129L93.3386 25.4594C93.6347 22.7126 96.0969 20.7314 98.8311 21.0255Z" stroke="#013323" stroke-width="6"/>
<path d="M66.4327 69.8538L23.9204 64.5861C22.0593 65.9676 20.0119 69.3657 23.1286 72.3372L67.9064 76.8605C69.943 74.0288 68.2161 71.0942 66.4327 69.8538Z" fill="#013323"/>
<path d="M51.7483 13.7766L13.2287 9.05959C7.36096 23.6135 1.34211 54.9198 23.9204 64.5861L66.4327 69.8538C90.69 65.9912 92.5073 34.1646 90.3755 18.6194L51.7483 13.7766Z" fill="#013323"/>
<path d="M67.9581 69.8248L25.4458 64.5571C23.5847 65.9386 21.5373 69.3367 24.6539 72.3081L69.4318 76.8315C71.4684 73.9998 69.7415 71.0652 67.9581 69.8248Z" fill="#9EFC5E"/>
<path d="M53.2736 13.7476L14.7541 9.03057C8.88635 23.5844 2.8675 54.8908 25.4458 64.5571L67.9581 69.8248C92.2154 65.9621 94.0327 34.1356 91.9009 18.5903L53.2736 13.7476Z" fill="#0D7F5B"/>
<path d="M100.441 20.3405C103.45 20.6642 105.631 23.3699 105.306 26.39L102.367 53.6435C102.041 56.6641 99.3328 58.8452 96.3236 58.5216C93.315 58.198 91.1343 55.4923 91.4597 52.4724L94.3979 25.2177C94.7237 22.1973 97.4319 20.017 100.441 20.3405Z" stroke="#9EFC5E" stroke-width="5"/>
<path fill-rule="evenodd" clip-rule="evenodd" d="M26.4975 18.7605C25.7706 22.3036 22.7875 30.8833 16.671 36.8573C10.9135 42.4807 17.7359 50.3545 20.9306 54.0416C21.7703 55.0107 22.3594 55.6906 22.4036 55.9644C22.2475 56.0786 22.2134 56.123 22.3316 56.0913C22.3921 56.0751 22.4146 56.0322 22.4036 55.9644C22.5354 55.868 22.754 55.7219 23.0413 55.53C25.9602 53.5801 35.963 46.8982 33.884 39.5145C32.3673 34.1278 29.8051 27.4429 27.9917 22.7115C27.389 21.1389 26.8689 19.782 26.4975 18.7605ZM19.9836 38.7051C23.547 35.2447 25.2808 30.2709 25.7023 28.2166C25.9197 28.8093 26.224 29.5966 26.5767 30.5091C27.6377 33.2544 29.137 37.1332 30.0255 40.2584C31.2433 44.5422 25.4138 48.4102 23.7126 49.5391C23.5451 49.6502 23.4177 49.7348 23.3409 49.7906C23.3149 49.6317 22.9708 49.237 22.4803 48.6744C20.6143 46.5337 16.6293 41.9624 19.9836 38.7051Z" fill="#9EFC5E" fill-opacity="0.5"/>
<path fill-rule="evenodd" clip-rule="evenodd" d="M53.217 21.9109C52.49 25.454 49.507 34.0337 43.3905 40.0078C37.633 45.6311 44.4553 53.5049 47.6501 57.1921C48.4898 58.1611 49.0788 58.841 49.1231 59.1148C48.967 59.229 48.9329 59.2734 49.0511 59.2417C49.1116 59.2256 49.1341 59.1826 49.1231 59.1148C49.2548 59.0184 49.4735 58.8723 49.7607 58.6805C52.6797 56.7305 62.6824 50.0486 60.6035 42.665C59.0867 37.2782 56.5246 30.5933 54.7112 25.862C54.1085 24.2893 53.5884 22.9324 53.217 21.9109ZM46.703 41.8555C50.2665 38.3952 52.0003 33.4214 52.4218 31.367C52.6392 31.9597 52.9435 32.747 53.2961 33.6595C54.3572 36.4048 55.8564 40.2836 56.7449 43.4088C57.9628 47.6926 52.1333 51.5607 50.4321 52.6895C50.2646 52.8006 50.1371 52.8852 50.0603 52.941C50.0343 52.7822 49.6903 52.3874 49.1998 51.8248C47.3338 49.6842 43.3488 45.1128 46.703 41.8555Z" fill="#9EFC5E" fill-opacity="0.5"/>
<path fill-rule="evenodd" clip-rule="evenodd" d="M80.4946 25.1753C79.7676 28.7184 76.7846 37.2981 70.668 43.2721C64.9106 48.8955 71.7329 56.7693 74.9277 60.4564C75.7674 61.4255 76.3564 62.1054 76.4007 62.3792C76.2446 62.4934 76.2104 62.5378 76.3287 62.5061C76.3891 62.4899 76.4116 62.447 76.4007 62.3792C76.5324 62.2828 76.7511 62.1367 77.0383 61.9448C79.9573 59.9949 89.96 53.313 87.881 45.9293C86.3643 40.5426 83.8022 33.8577 81.9888 29.1263C81.386 27.5537 80.866 26.1968 80.4946 25.1753ZM73.9806 45.1199C77.544 41.6595 79.2779 36.6857 79.6994 34.6314C79.9168 35.2241 80.221 36.0114 80.5737 36.9239C81.6348 39.6692 83.134 43.548 84.0225 46.6732C85.2404 50.957 79.4109 54.825 77.7097 55.9539C77.5422 56.065 77.4147 56.1495 77.3379 56.2054C77.3119 56.0465 76.9679 55.6518 76.4774 55.0892C74.6113 52.9485 70.6264 48.3772 73.9806 45.1199Z" fill="#9EFC5E" fill-opacity="0.5"/>
<g filter="url(#filter0_g_95_30)">
<path fill-rule="evenodd" clip-rule="evenodd" d="M37.6597 11.8969L33.7759 39.201L28.1887 38.0546L25.2617 52.3203L38.1123 54.9569L41.0393 40.6913L34.8933 39.4303L38.5098 12.0132C38.5393 11.7898 38.3913 11.5817 38.1708 11.5364C37.9286 11.4867 37.6946 11.6518 37.6597 11.8969ZM40.029 41.3585L28.8546 39.0658L26.3294 51.3733L37.2245 53.6087L40.029 41.3585Z" fill="#0D1400"/>
<path d="M28.8546 39.0658L40.029 41.3585L37.2245 53.6087L26.3294 51.3733L28.8546 39.0658Z" fill="#E2FFAB"/>
<path fill-rule="evenodd" clip-rule="evenodd" d="M31.0175 42.7131C30.8656 44.0731 31.1118 44.0982 31.7683 45.0039C30.2643 46.6096 29.8341 48.096 29.855 48.8365C29.8759 49.577 30.3489 49.8661 30.8137 49.9615C32.0465 50.2144 32.7578 49.0566 33.305 48.1659C33.6111 47.6677 33.8336 47.0548 34.0787 47.1844C34.3238 47.3139 34.1779 47.434 33.9845 47.9334C33.8242 48.3474 33.8425 48.9524 33.9198 49.3168C34.0322 49.8469 34.54 50.5659 34.54 50.5659L35.3647 49.9029C35.3647 49.9029 35.1467 49.5267 35.0576 49.2638C34.9105 48.8298 35.076 48.4337 35.2362 48.0505C35.414 47.6252 35.5851 47.2158 35.3151 46.7879C35.1178 46.4752 34.9442 46.3331 34.635 46.1362C33.8018 45.6057 33.0698 46.6598 32.4098 47.6103C31.8941 48.3529 31.4223 49.0323 30.9805 48.8434C29.9733 48.4126 32.6238 45.5635 32.6238 45.5635C32.6976 45.8672 36.9377 46.2005 36.4008 43.9379C35.9001 41.8283 34.2327 42.9973 33.2303 43.7001C32.9217 43.9165 32.6761 44.0887 32.547 44.1074C32.0112 44.1851 32.0904 43.5949 32.1486 43.1609C32.15 43.1506 32.1783 43.2801 32.1527 43.1302C32.1271 42.9804 32.1093 42.8777 32.1093 42.8777L31.0175 42.7131ZM35.3309 44.2699C35.1818 44.9966 33.7205 44.6362 33.7205 44.6362C33.7205 44.6362 34.3793 44.4833 35.1467 43.8012C35.3258 43.642 35.3765 44.0478 35.3309 44.2699Z" fill="#67FF00"/>
</g>
<defs>
<filter id="filter0_g_95_30" x="23.2617" y="9.52756" width="19.7776" height="47.4293" filterUnits="userSpaceOnUse" color-interpolation-filters="sRGB">
<feFlood flood-opacity="0" result="BackgroundImageFix"/>
<feBlend mode="normal" in="SourceGraphic" in2="BackgroundImageFix" result="shape"/>
<feTurbulence type="fractalNoise" baseFrequency="0.090090088546276093 0.090090088546276093" numOctaves="3" seed="8189" />
<feDisplacementMap in="shape" scale="4" xChannelSelector="R" yChannelSelector="G" result="displacedImage" width="100%" height="100%" />
<feMerge result="effect1_texture_95_30">
<feMergeNode in="displacedImage"/>
</feMerge>
</filter>
</defs>
</svg>
