<svg width="32" height="32" viewBox="0 0 32 32" fill="none" xmlns="http://www.w3.org/2000/svg">
<rect width="32" height="32" fill="#0A0A0A"/>
<g filter="url(#filter0_g_59_82)">
<path fill-rule="evenodd" clip-rule="evenodd" d="M6 3.73981C6.43669 8.34183 7.30039 10.4013 10.1935 12.952C6.15892 19.2847 5.72906 24.4938 6.32258 26.9293C6.9161 29.3648 8.74475 30 10.4086 30C14.8217 30 16.449 25.687 17.7008 22.3693C18.401 20.5133 18.7333 18.335 19.6667 18.5971C20.6 18.8592 20.1833 19.3557 19.871 21.1389C19.612 22.6173 20.1014 24.6062 20.6237 25.7594C21.3832 27.4364 23.6344 29.4705 23.6344 29.4705L26 26.7174C26 26.7174 24.9861 25.6207 24.4946 24.8114C23.6835 23.4756 23.973 22.053 24.2531 20.6765C24.564 19.1491 24.8633 17.6785 23.6344 16.4463C22.7361 15.5456 22.0397 15.1936 20.8387 14.7521C17.603 13.5626 15.8314 17.5465 14.234 21.1389C12.9859 23.9455 11.8442 26.5131 10.1935 26.188C6.43011 25.4467 13.5269 14.2227 13.5269 14.2227C13.9942 15.1772 28.7939 13.4019 25.3548 6.28127C22.1484 -0.357633 17.2447 4.64137 14.2967 7.6467C13.3891 8.57191 12.6668 9.30818 12.2366 9.45774C10.4511 10.0783 10.307 8.07224 10.2011 6.59721C10.1985 6.56212 10.196 6.52733 10.1935 6.49289C10.086 5.01046 10.1935 3.73981 10.1935 3.73981H6ZM21.914 8.10565C21.914 10.611 16.6404 10.4107 16.6404 10.4107C16.6404 10.4107 18.7957 9.45774 20.951 6.68023C21.4538 6.03218 21.914 7.34 21.914 8.10565Z" fill="url(#paint0_linear_59_82)"/>
</g>
<defs>
<filter id="filter0_g_59_82" x="5" y="2" width="22" height="29" filterUnits="userSpaceOnUse" color-interpolation-filters="sRGB">
<feFlood flood-opacity="0" result="BackgroundImageFix"/>
<feBlend mode="normal" in="SourceGraphic" in2="BackgroundImageFix" result="shape"/>
<feTurbulence type="fractalNoise" baseFrequency="inf inf" numOctaves="3" seed="8189" />
<feDisplacementMap in="shape" scale="2" xChannelSelector="R" yChannelSelector="G" result="displacedImage" width="100%" height="100%" />
<feMerge result="effect1_texture_59_82">
<feMergeNode in="displacedImage"/>
</feMerge>
</filter>
<linearGradient id="paint0_linear_59_82" x1="6.17773" y1="3" x2="28.5366" y2="28.1871" gradientUnits="userSpaceOnUse">
<stop stop-color="#9EFC5E" stop-opacity="0.66"/>
<stop offset="0.217024" stop-color="#7CA5FF"/>
<stop offset="0.364439" stop-color="#F1A229"/>
<stop offset="0.665444" stop-color="#F44D44"/>
<stop offset="0.784892" stop-color="#FF98D7"/>
<stop offset="1" stop-color="#B7FF86"/>
</linearGradient>
</defs>
</svg>
