<svg width="125" height="49" viewBox="0 0 125 49" fill="none" xmlns="http://www.w3.org/2000/svg">
<path d="M6.42188 47.0859C6.21094 47.0859 6.02344 47.0391 5.85938 46.9219C5.03906 46.3359 4.66406 45.375 4.66406 44.1328C4.66406 40.2422 8.13281 33.5391 12.6094 26.5547C11.1328 26.3438 9.72656 26.2266 8.41406 26.2266C5.88281 26.2266 3.72656 26.6719 2.27344 27.7266C2.10938 27.8672 1.89844 27.9141 1.6875 27.9141C1.14844 27.9141 0.679688 27.4453 0.679688 26.9062C0.679688 26.6016 0.820312 26.2969 1.10156 26.1094C2.90625 24.7734 5.48438 24.2344 8.46094 24.2344C10.1484 24.2344 11.9531 24.3984 13.8047 24.7031C21.6328 12.75 31.6875 0.585938 31.7344 0.515625C31.9219 0.28125 32.2266 0.140625 32.5078 0.140625C33.0234 0.140625 33.5156 0.585938 33.5156 1.14844C33.5156 1.35938 33.4219 1.59375 33.2812 1.78125C33.2109 1.82812 23.4844 13.6875 15.7031 25.0312L16.3359 25.1719C22.125 26.3906 28.2656 28.6641 32.5781 30.6328C34.0078 21.8672 46.5469 6.42188 49.8047 2.46094C50.0156 2.20312 50.2969 2.08594 50.5781 2.08594C51.1172 2.08594 51.5859 2.55469 51.5859 3.09375C51.5859 3.30469 51.5156 3.53906 51.3516 3.72656C48.0703 7.73438 35.0156 24.1406 34.3594 31.4766C38.1562 33.375 38.7422 34.1719 38.7422 35.1328C38.7422 36.1172 37.8516 36.7969 36.5859 36.7969C35.7188 36.7969 34.6406 36.4688 33.75 35.6719C32.9531 34.9453 32.5547 33.9141 32.4609 32.7188C27.8203 30.5625 20.8359 28.0312 14.4844 26.8594C9.86719 33.75 6.23438 40.2188 6.23438 43.4766C6.23438 44.2969 6.46875 44.9062 6.98438 45.2812C7.26562 45.4688 7.40625 45.7734 7.40625 46.1016C7.40625 46.6406 6.96094 47.0859 6.42188 47.0859ZM36.2109 34.7578C35.8828 34.5234 35.4375 34.2422 34.875 33.9375C35.3672 34.4766 35.6484 34.6406 36.2109 34.7578ZM43.2891 30.8906C42.2109 30.8906 41.4375 30.7266 40.8984 30.3984C40.1953 29.9766 39.8906 29.3906 39.8906 28.6875V28.6172C39.8906 28.0312 40.1484 27.4219 40.5469 26.8359C41.4844 25.4062 43.5234 23.7891 45.2344 22.9453C46.1016 22.5234 46.8516 22.3359 47.4609 22.3359C47.7891 22.3359 48.0469 22.3828 48.2812 22.4766C48.7266 22.6406 49.0547 22.9219 49.2188 23.3203C49.3125 23.5312 49.3594 23.7422 49.3594 23.9766C49.3594 24.1406 49.3359 24.3516 49.2891 24.5391C49.0547 25.2891 48.2812 26.1797 46.8516 26.9062C45.2109 27.75 43.0312 28.4062 41.9766 28.7109C42.2109 28.8281 42.6094 28.8984 43.2188 28.8984C43.5234 28.8984 43.8984 28.875 44.3438 28.8516C46.0078 28.6875 48.1172 28.1953 50.1562 27.6328C52.8281 26.8828 55.3594 25.9922 56.5781 25.4297C56.7188 25.3594 56.8594 25.3359 57 25.3359C57.375 25.3359 57.75 25.5469 57.9141 25.9219C57.9844 26.0625 58.0078 26.2031 58.0078 26.3438C58.0078 26.7188 57.7969 27.0703 57.4219 27.2578C56.1328 27.8438 53.4844 28.7812 50.6953 29.5781C48.5625 30.1641 46.3359 30.6797 44.5312 30.8438C44.0625 30.8672 43.6641 30.8906 43.2891 30.8906ZM44.3906 25.8047C45.5391 25.3359 46.5938 24.8203 47.0625 24.375C46.4297 24.5156 45.375 25.0781 44.3906 25.8047ZM51.8906 48.6094C50.8594 48.6094 50.2969 47.6484 50.2969 46.5469C50.2969 45.0469 51.2578 43.0078 52.4297 40.9453C55.1953 36.2109 58.2891 33.7031 61.9922 31.7344C63.1406 29.6484 64.1016 27.8906 64.9688 26.25C62.4609 27.9844 59.7422 29.5078 58.0547 29.5078C56.8359 29.5078 56.0859 28.8047 56.0859 27.5391C56.0859 26.3906 56.6953 24.75 58.4531 21.8672C58.6406 21.5625 58.9688 21.3984 59.3203 21.3984C59.8594 21.3984 60.3281 21.8438 60.3281 22.4062C60.3281 22.5703 60.2578 22.7578 60.1641 22.9219C58.7109 25.3125 58.1016 26.7422 58.0781 27.4922C59.8828 27.4922 65.3438 23.6953 66.8906 22.1719C67.1016 21.9844 67.3359 21.8672 67.5938 21.8672L67.6875 21.8906C67.7344 21.8672 67.7812 21.8672 67.8281 21.8672C68.3672 21.8672 68.8359 22.3125 68.8359 22.875C68.8359 23.0156 68.7891 23.1562 68.7188 23.2969C68.1094 24.5625 66.75 27.1875 65.0859 30.2344C68.6953 28.6641 72.7031 27.1641 77.2969 24.6797C77.4375 24.5859 77.6016 24.5391 77.7656 24.5391C78.3281 24.5391 78.7734 25.0078 78.7734 25.5469C78.7734 25.8984 78.5859 26.25 78.2578 26.4141C72.1172 29.7656 67.5938 31.1016 63.4453 33.2344C62.0859 35.6484 60.6562 38.1562 59.3438 40.3125C55.8047 46.0547 53.3906 48.6094 51.8906 48.6094ZM52.3125 46.2891C53.8125 45.0234 56.3672 41.5312 59.9297 35.3906C57.7734 36.9609 55.8984 38.9766 54.1875 41.9531C53.1328 43.7344 52.4297 45.3516 52.3125 46.2891ZM87.9375 45.3516C87.375 45.3516 86.8594 44.9531 86.8594 44.1562C86.8594 40.7578 93.9141 29.5781 99.9141 20.4375L95.6016 20.5078C89.2266 24.7969 82.8984 28.1484 78.2812 30.7734C78.5625 31.4062 78.7031 31.9922 78.7031 32.5078C78.7031 35.2969 75.1641 36.9141 72.7031 36.9141C71.0859 36.9141 69.9844 36.2578 69.9844 35.0156V34.7344C70.1719 33.3984 72.3516 31.8281 75.7266 29.8594C75.6797 29.625 75.6562 29.3906 75.6562 29.1328C75.6562 25.6406 79.6406 22.125 82.2188 22.125C83.5312 22.125 84.5391 22.9922 84.5391 24.6797V24.8906C86.8125 23.5781 89.2266 22.1719 91.6641 20.6016C86.4141 20.7656 83.1562 20.9766 81.6797 21.0234C81.0938 21.0234 80.6484 20.5312 80.6484 19.9688C80.6484 19.4531 81.0703 19.0078 81.6094 18.9609C83.3438 18.8203 88.8516 18.5859 94.9453 18.4688C99.5391 15.3281 104.039 11.7891 107.695 7.82812C108.117 7.35938 108.586 7.17188 108.961 7.17188C109.641 7.17188 110.086 7.71094 110.086 8.29688C110.086 8.55469 110.016 8.8125 109.875 9.09375C109.172 10.3125 106.781 13.7812 103.781 18.375C110.273 18.375 115.898 18.8203 116.789 19.8516C116.953 20.0391 117.047 20.2969 117.047 20.5312C117.047 21.0938 116.555 21.5625 115.992 21.5625C115.711 21.5625 115.43 21.4453 115.219 21.2109C114.773 20.6953 108.984 20.4375 102.398 20.4375C96.3281 29.5781 88.8281 41.2266 88.8281 43.6406C88.8281 43.9453 88.9453 44.0859 88.9453 44.3203C88.9453 44.8828 88.4766 45.3516 87.9375 45.3516ZM98.6484 18.3984L101.297 18.375L104.156 14.0859C102.375 15.5859 100.523 17.0391 98.6484 18.3984ZM77.7656 28.6875C79.2656 27.8438 80.9062 26.9531 82.7812 25.875C82.5703 25.6875 82.4297 25.4062 82.4297 25.1016C82.4297 24.8906 82.4766 24.7031 82.4766 24.5625C82.4766 24.1875 82.3828 24.1641 82.2188 24.1641C81.2109 24.1641 78.1641 26.2031 77.7656 28.6875ZM72.0469 35.0391C72.0703 35.0391 72.1875 34.8047 72.2812 34.8047L72.6797 34.8281C74.1094 34.8281 76.5703 33.9844 76.5703 32.3672C76.5703 32.2031 76.5234 32.0156 76.4766 31.8281C73.9453 33.2812 72.0703 34.4531 72.0469 35.0156V35.0391ZM109.945 31.125C107.648 31.125 106.852 30.1875 106.805 28.8281C106.805 26.9062 109.172 24.2812 109.477 23.7656C109.688 23.4844 109.992 23.3438 110.32 23.3438C110.836 23.3438 111.305 23.8125 111.305 24.3516C111.305 24.7969 110.953 25.2188 110.648 25.5938C109.922 26.5078 108.82 27.9844 108.82 28.7812C108.82 28.9922 108.961 29.1328 109.852 29.1328C111.234 29.1328 113.742 28.6641 116.438 27.8906C119.391 27.0703 122.25 26.0156 123.562 25.4062C123.703 25.3359 123.844 25.3125 123.984 25.3125C124.547 25.3125 124.992 25.8047 124.992 26.3203C124.992 26.6953 124.781 27.0703 124.406 27.2344C121.711 28.5 113.789 31.125 109.945 31.125ZM112.594 21.2109C111.82 21.2109 111.258 20.6484 111.258 19.9219C111.258 19.0547 112.031 18.2344 112.969 18.2344C113.719 18.2344 114.281 18.7969 114.281 19.5469C114.281 20.3906 113.531 21.2109 112.594 21.2109Z" fill="#16151A"/>
</svg>
