<svg width="80" height="39" viewBox="0 0 80 39" fill="none" xmlns="http://www.w3.org/2000/svg">
<path fill-rule="evenodd" clip-rule="evenodd" d="M0 0.881336C0.509837 6.36368 1.51821 8.81718 4.89598 11.8558C0.18554 19.3998 -0.316318 25.6054 0.376614 28.5068C1.06955 31.4082 3.2045 32.1649 5.14706 32.1649C10.2993 32.1649 12.1992 27.0269 13.6607 23.0745C14.4782 20.8635 15.1586 19.0235 16.1944 18.6615C17.773 18.1097 17.486 19.7817 17.1214 21.906C16.8191 23.6672 17.0696 25.7654 17.6793 27.1392C18.5661 29.137 20.8483 31.3273 20.8483 31.3273L23.1833 28.6469C23.1833 28.6469 21.849 26.9716 21.5925 25.9838C21.1268 24.1898 20.9835 22.6977 21.3106 21.0579C21.6735 19.2383 22.0229 17.4864 20.5882 16.0185C19.5395 14.9455 18.7264 14.5262 17.3242 14.0002C13.5465 12.5832 11.4782 17.3292 9.61318 21.6088C8.15611 24.9523 6.82312 28.011 4.89598 27.6237C0.502152 26.7406 8.78766 13.3695 8.78766 13.3695C9.33328 14.5066 26.612 12.3917 22.5968 3.90895C18.8533 -3.99993 13.1282 1.95535 9.68637 5.53558C8.62677 6.63779 7.78356 7.51489 7.2812 7.69306C5.19665 8.43238 5.02844 6.04253 4.90476 4.28534C4.90181 4.24354 4.8989 4.20209 4.89598 4.16106C4.77044 2.39505 4.89598 0.881336 4.89598 0.881336H0ZM18.5796 6.08233C18.5796 9.06694 12.4227 8.82837 12.4227 8.82837C12.4227 8.82837 14.939 7.69306 17.4553 4.38423C18.0424 3.61222 18.5796 5.17021 18.5796 6.08233Z" fill="#1E1E1E"/>
<path d="M34.4247 24.2577V25.2964H21.6822C21.8601 26.4802 22.2937 27.3849 22.9831 28.0103C23.6725 28.6357 24.5509 28.9485 25.6183 28.9485C27.3084 28.9485 28.4648 28.3007 29.0875 27.0052H34.0244C33.5574 28.7921 32.5678 30.2105 31.0556 31.2603C29.5434 32.2878 27.731 32.8015 25.6183 32.8015C22.9498 32.8015 20.7927 31.9751 19.147 30.3222C17.5014 28.6692 16.6786 26.4802 16.6786 23.7552C16.6786 21.0077 17.4903 18.8187 19.1137 17.1882C20.7148 15.5352 22.8608 14.7088 25.5516 14.7088C28.2202 14.7088 30.3773 15.5687 32.0229 17.2887C33.6241 19.0309 34.4247 21.354 34.4247 24.2577ZM25.4849 18.5619C23.3501 18.5619 22.0936 19.701 21.7155 21.9794H29.321C29.1431 20.9072 28.7206 20.0696 28.0534 19.4665C27.3863 18.8634 26.5301 18.5619 25.4849 18.5619Z" fill="#1E1E1E"/>
<path d="M44.7185 17.5902L45.4857 15.1108H50.8562L44.6184 33.0696C43.8401 35.3033 42.8505 36.8445 41.6496 37.6933C40.4043 38.5644 38.5363 39 36.0456 39C35.6231 39 34.9448 38.9777 34.0108 38.933V34.9124H35.6787C37.4133 34.9124 38.2805 34.1082 38.2805 32.5C38.2805 31.7852 38.0137 30.6684 37.48 29.1495L32.5431 15.1108H38.1471L38.9143 17.5567C40.0262 21.3093 41.0047 24.939 41.8498 28.4459C42.717 24.805 43.6733 21.1864 44.7185 17.5902Z" fill="#1E1E1E"/>
<path d="M57.2947 32.9021C54.5816 32.9021 52.558 32.433 51.2237 31.4948C49.9116 30.5344 49.1778 29.0043 49.0221 26.9046H54.0924C54.1813 27.8205 54.4704 28.4682 54.9597 28.8479C55.4711 29.2277 56.2828 29.4175 57.3947 29.4175C59.3295 29.4175 60.2968 28.8591 60.2968 27.7423C60.2968 27.2062 60.0856 26.8041 59.663 26.5361C59.2405 26.2457 58.4622 26.0112 57.328 25.8325L55.0931 25.4639C51.2237 24.8608 49.2889 23.0962 49.2889 20.1701C49.2889 18.4278 49.9561 17.0876 51.2904 16.1495C52.6247 15.189 54.5371 14.7088 57.0278 14.7088C62.1648 14.7088 64.8334 16.6856 65.0336 20.6392H60.1968C60.1745 19.0086 59.1182 18.1933 57.0278 18.1933C55.271 18.1933 54.3926 18.7406 54.3926 19.8351C54.3926 20.3265 54.5927 20.7062 54.993 20.9742C55.3933 21.2423 56.0271 21.4433 56.8944 21.5773L59.4629 21.9459C61.531 22.2586 63.0544 22.8505 64.0328 23.7217C65.0113 24.5928 65.5006 25.7878 65.5006 27.3067C65.5006 29.0936 64.7778 30.4785 63.3323 31.4613C61.9091 32.4218 59.8965 32.9021 57.2947 32.9021Z" fill="#1E1E1E"/>
<path d="M74.7963 15.1108L75.1298 18.9304H71.8275V27.0052C71.8275 27.5859 71.972 27.988 72.2611 28.2113C72.5502 28.4124 73.0617 28.5129 73.7956 28.5129H75.1298L74.7963 32.3995C74.1736 32.4888 73.7066 32.5335 72.7281 32.5335C70.571 32.5335 69.0144 32.1538 68.0581 31.3943C67.1019 30.6125 66.6237 29.3393 66.6237 27.5747V18.9304H64.0552V15.1108H66.6237V9.98455H71.8275V15.1108H74.7963Z" fill="#1E1E1E"/>
<path d="M79.8999 10.9228C79.8999 12.144 78.9142 13.1341 77.6983 13.1341H77.1313C75.9154 13.1341 74.9297 12.144 74.9297 10.9228C74.9297 9.70147 75.9154 8.71142 77.1313 8.71142H77.6983C78.9142 8.71142 79.8999 9.70147 79.8999 10.9228ZM80 32.3996L74.7963 32.3995V15.1108L80 15.1109V32.3996Z" fill="#1E1E1E"/>
</svg>
