<svg width="120" height="85" viewBox="0 0 120 85" fill="none" xmlns="http://www.w3.org/2000/svg">
<path d="M14.6979 51.1771L5.3125 46.2187L2.125 40.0208L23.5521 20.7187L29.3958 0.708333H60.7396L96.3333 4.25L101.292 20.7187L119.708 35.9479L109.437 46.2187V68L88.3646 75.6146L84.2917 70.8333L68.3542 85L52.5937 79.1562L34.7083 85L14.6979 70.8333V51.1771Z" fill="#A38504"/>
<path d="M12.5729 50.4687L3.1875 45.5104L0 39.3125L21.4271 20.0104L27.2708 1.16352e-07H58.6146L94.2083 3.54167L99.1667 20.0104L117.583 35.2396L107.312 45.5104V67.2917L86.2396 74.9062L82.1667 70.125L66.2292 84.2917L50.4687 78.4479L32.5833 84.2917L12.5729 70.125V50.4687Z" fill="#FECE00"/>
<path fill-rule="evenodd" clip-rule="evenodd" d="M24.4073 24.1842C13.5321 27.8087 9.40849 33.2798 6.16184 37.5874C5.99472 37.8091 5.82993 38.0278 5.66667 38.2429L11.8606 42.3716C12.2418 39.7664 18.2663 35.9909 21.2309 34.4289C8.01719 53.7455 15.5664 60.9046 20.9927 62.0695C18.9281 76.6047 30.6386 76.7714 36.4776 75.8104C42.7509 74.7778 46.642 72.395 52.3595 65.326C54.3447 92.2518 88.3862 59.2101 89.5232 42.0539C89.5232 42.0539 92.0255 42.6099 94.6848 45.7869C97.3441 48.964 92.6201 58.7336 85.9497 61.1958L89.5232 68.1854C103.309 62.0218 109.773 42.6893 91.9054 34.5877C91.9876 34.5664 92.1253 34.4965 92.3208 34.3973C93.8262 33.6332 98.7573 31.1303 108.105 35.6997L111.917 29.1072C104.117 25.5403 99.634 24.6212 91.2702 26.645C94.0406 17.3439 94.2303 10.502 80.7881 9.09161C78.5388 0.257322 73.2069 -0.349323 57.8388 4.8041C40.7284 -9.86512 29.9191 12.9629 25.9621 21.3197C25.1626 23.0081 24.6429 24.1057 24.4073 24.1842ZM38.701 64.6112C41.1098 58.1776 47.4202 44.9291 53.3918 43.4041C53.1861 48.5284 43.0238 62.4986 38.701 64.6112ZM32.5071 58.6541C33.787 56.273 29.8437 60.0701 29.5825 60.3229C28.5931 61.1635 25.5715 65.7768 27.8219 67.6294C27.9456 67.7312 28.0951 67.8619 28.2599 68.0059C29.2759 68.8938 30.8746 70.291 30.6013 68.5825C30.2836 66.5968 31.1836 61.1164 32.5071 58.6541ZM62.2063 58.6541C65.2238 53.5339 80.8675 41.4184 80.8675 41.4184L82.2175 40.8255C76.8176 51.4952 59.6652 71.5638 59.6652 68.625C59.6652 65.6862 60.0067 63.064 62.2063 58.6541ZM77.6911 22.319L79.5176 17.0768C81.1322 17.0239 84.5362 17.2992 85.235 18.8242C85.9339 20.3492 84.6262 22.9544 83.8851 24.0664C82.7416 22.605 78.9352 22.1072 77.6911 22.319ZM64.3503 24.3047L64.668 25.099L68.8767 23.6693L69.9884 20.9688L64.3503 24.3047ZM56.0917 18.6654L49.9772 17.7122C50.9831 16.0972 53.5824 13.4867 55.9329 15.9648C58.2834 18.443 57.0182 18.7978 56.0917 18.6654ZM61.968 11.2786L63.5562 15.9648C64.8478 14.1637 71.1316 11.5382 73.0854 11.1992C73.5567 11.1174 73.4198 10.7347 73.2591 10.2853C73.1903 10.093 73.1171 9.88846 73.0854 9.69011C69.2473 9.42535 61.6504 9.3724 61.968 11.2786ZM35.1705 19.5074L49.9772 8.57813C43.22 10.6374 30.8931 15.7612 35.1705 19.5074Z" fill="#010405"/>
</svg>
